<svg width="133" height="30" viewBox="0 0 133 30" fill="none" xmlns="http://www.w3.org/2000/svg">
<path d="M17.48 12.2C17.0367 11.3833 16.395 10.765 15.555 10.345C14.7383 9.90166 13.77 9.68 12.65 9.68C10.7133 9.68 9.16167 10.3217 7.995 11.605C6.82833 12.865 6.245 14.5567 6.245 16.68C6.245 18.9433 6.85167 20.7167 8.065 22C9.30167 23.26 10.9933 23.89 13.14 23.89C14.61 23.89 15.8467 23.5167 16.85 22.77C17.8767 22.0233 18.6233 20.95 19.09 19.55H11.495V15.14H24.515V20.705C24.0717 22.1983 23.3133 23.5867 22.24 24.87C21.19 26.1533 19.8483 27.1917 18.215 27.985C16.5817 28.7783 14.7383 29.175 12.685 29.175C10.2583 29.175 8.08833 28.65 6.175 27.6C4.285 26.5267 2.80333 25.045 1.73 23.155C0.68 21.265 0.155 19.1067 0.155 16.68C0.155 14.2533 0.68 12.095 1.73 10.205C2.80333 8.29167 4.285 6.81 6.175 5.76C8.065 4.68667 10.2233 4.15 12.65 4.15C15.59 4.15 18.0633 4.86167 20.07 6.285C22.1 7.70833 23.4417 9.68 24.095 12.2H17.48ZM36.7202 29.28C34.8068 29.28 33.0802 28.8717 31.5402 28.055C30.0235 27.2383 28.8218 26.0717 27.9352 24.555C27.0718 23.0383 26.6402 21.265 26.6402 19.235C26.6402 17.2283 27.0835 15.4667 27.9702 13.95C28.8568 12.41 30.0702 11.2317 31.6102 10.415C33.1502 9.59833 34.8768 9.19 36.7902 9.19C38.7035 9.19 40.4302 9.59833 41.9702 10.415C43.5102 11.2317 44.7235 12.41 45.6102 13.95C46.4968 15.4667 46.9402 17.2283 46.9402 19.235C46.9402 21.2417 46.4852 23.015 45.5752 24.555C44.6885 26.0717 43.4635 27.2383 41.9002 28.055C40.3602 28.8717 38.6335 29.28 36.7202 29.28ZM36.7202 24.1C37.8635 24.1 38.8318 23.68 39.6252 22.84C40.4418 22 40.8502 20.7983 40.8502 19.235C40.8502 17.6717 40.4535 16.47 39.6602 15.63C38.8902 14.79 37.9335 14.37 36.7902 14.37C35.6235 14.37 34.6552 14.79 33.8852 15.63C33.1152 16.4467 32.7302 17.6483 32.7302 19.235C32.7302 20.7983 33.1035 22 33.8502 22.84C34.6202 23.68 35.5768 24.1 36.7202 24.1ZM70.0623 29L64.9523 19.725H63.5173V29H57.5323V4.43H67.5773C69.514 4.43 71.159 4.76833 72.5123 5.445C73.889 6.12166 74.9156 7.055 75.5923 8.245C76.269 9.41167 76.6073 10.7183 76.6073 12.165C76.6073 13.7983 76.1406 15.2567 75.2073 16.54C74.2973 17.8233 72.944 18.7333 71.1473 19.27L76.8173 29H70.0623ZM63.5173 15.49H67.2273C68.324 15.49 69.1406 15.2217 69.6773 14.685C70.2373 14.1483 70.5173 13.39 70.5173 12.41C70.5173 11.4767 70.2373 10.7417 69.6773 10.205C69.1406 9.66833 68.324 9.4 67.2273 9.4H63.5173V15.49ZM83.3743 7.44C82.3243 7.44 81.461 7.13667 80.7843 6.53C80.131 5.9 79.8043 5.13 79.8043 4.22C79.8043 3.28667 80.131 2.51667 80.7843 1.91C81.461 1.28 82.3243 0.964998 83.3743 0.964998C84.401 0.964998 85.241 1.28 85.8943 1.91C86.571 2.51667 86.9093 3.28667 86.9093 4.22C86.9093 5.13 86.571 5.9 85.8943 6.53C85.241 7.13667 84.401 7.44 83.3743 7.44ZM86.3493 9.47V29H80.3643V9.47H86.3493ZM89.4966 19.2C89.4966 17.1933 89.8699 15.4317 90.6166 13.915C91.3866 12.3983 92.4249 11.2317 93.7316 10.415C95.0383 9.59833 96.4966 9.19 98.1066 9.19C99.3899 9.19 100.557 9.45833 101.607 9.995C102.68 10.5317 103.52 11.255 104.127 12.165V3.1H110.112V29H104.127V26.2C103.567 27.1333 102.762 27.88 101.712 28.44C100.685 29 99.4833 29.28 98.1066 29.28C96.4966 29.28 95.0383 28.8717 93.7316 28.055C92.4249 27.215 91.3866 26.0367 90.6166 24.52C89.8699 22.98 89.4966 21.2067 89.4966 19.2ZM104.127 19.235C104.127 17.7417 103.707 16.5633 102.867 15.7C102.05 14.8367 101.047 14.405 99.8566 14.405C98.6666 14.405 97.6516 14.8367 96.8116 15.7C95.9949 16.54 95.5866 17.7067 95.5866 19.2C95.5866 20.6933 95.9949 21.8833 96.8116 22.77C97.6516 23.6333 98.6666 24.065 99.8566 24.065C101.047 24.065 102.05 23.6333 102.867 22.77C103.707 21.9067 104.127 20.7283 104.127 19.235ZM132.851 18.92C132.851 19.48 132.816 20.0633 132.746 20.67H119.201C119.295 21.8833 119.68 22.8167 120.356 23.47C121.056 24.1 121.908 24.415 122.911 24.415C124.405 24.415 125.443 23.785 126.026 22.525H132.396C132.07 23.8083 131.475 24.9633 130.611 25.99C129.771 27.0167 128.71 27.8217 127.426 28.405C126.143 28.9883 124.708 29.28 123.121 29.28C121.208 29.28 119.505 28.8717 118.011 28.055C116.518 27.2383 115.351 26.0717 114.511 24.555C113.671 23.0383 113.251 21.265 113.251 19.235C113.251 17.205 113.66 15.4317 114.476 13.915C115.316 12.3983 116.483 11.2317 117.976 10.415C119.47 9.59833 121.185 9.19 123.121 9.19C125.011 9.19 126.691 9.58667 128.161 10.38C129.631 11.1733 130.775 12.305 131.591 13.775C132.431 15.245 132.851 16.96 132.851 18.92ZM126.726 17.345C126.726 16.3183 126.376 15.5017 125.676 14.895C124.976 14.2883 124.101 13.985 123.051 13.985C122.048 13.985 121.196 14.2767 120.496 14.86C119.82 15.4433 119.4 16.2717 119.236 17.345H126.726Z" fill="white"/>
</svg>
